{"title":"Cinema Paradiso*1988*[1080p.LPCM.AC3.2.0.BluRay.x264-LEON 345]","uid":8909679,"size":12862578333,"categoryP":"video","categoryS":"hd___movies","magnet":"?xt=urn:btih:c6aa49f689afa43eb9378b22ea9f2f61b157ff99&amp;dn=Cinema+Paradiso%2A1988%2A%5B1080p.LPCM.AC3.2.0.BluRay.x264-LEON+345%5D&amp;tr=udp%3A%2F%2Ftracker.openbittorrent.com%3A80&amp;tr=udp%3A%2F%2Fopen.demonii.com%3A1337&amp;tr=udp%3A%2F%2Ftracker.coppersurfer.tk%3A6969&amp;tr=udp%3A%2F%2Fexodus.desync.com%3A6969","seeders":2,"leechers":0,"uploader":"Leon345","files":-1,"time":1378946376,"description":"Cinema Paradiso - Nuovo Cinema Paradiso *1988*[1080p.LPCM.AC3.2.0.BluRay.x264-LEON 345] [Lektor i Napisy PL]\n===========================================================================\n\n IMDB http://www.imdb.com/title/tt0095765/?ref_=sr_1\n\n Produkcja: Francja , WÅ‚ochy \n gatunek: Biograficzny, Dramat\n data premiery: 1988-11-17 (Åšwiat)\n reÅ¼yseria Giuseppe Tornatore \n scenariusz Giuseppe Tornatore, \n muzyka Ennio Morricone,\n\n Obraz Tornatore zwyciÄ™Å¼aÅ‚ w wielu konkursach i festiwalach, m.in Oskar dla najlepszego filmu obcojÄ™zycznego, ZÅ‚oty Glob, nagrody dla reÅ¼ysera w Cannes, Wielkiej Brytani. Film przenosi nas w czasie kilkadziesiÄ…t lat wstecz do maÅ‚ego wÅ‚oskiego miasteczka, gdzie w kaÅ¼dÄ… niedzielÄ™ wszyscy mieszkaÅ„cy zbierajÄ… siÄ™ na rynku, aby oglÄ…dajÄ…c filmy wyÅ›wietlane na Å›cianie koÅ›cioÅ‚a razem poczuÄ‡ magiÄ™ kina i chociaÅ¼ na chwilÄ™ oderwaÄ‡ siÄ™ od rzeczywistoÅ›ci. Obraz ten pobudza do Å›miechu, wzrusza i raduje. PoruszajÄ…ca opowieÅ›Ä‡ o przyjaÅºni, mÅ‚odoÅ›ci i miÅ‚oÅ›ci do kina, przepeÅ‚niona magiÄ… kina - obowiÄ…zkowo do obejrzenia!!\n\n General\n\n Format : Matroska\n Format version : Version 2\n File size : 12.0 GiB\n Duration : 2h 3mn\n Overall bit rate : 13.9 Mbps\n Movie name : Cinema.Paradiso.1988.1080.Bluray.Title0.BlurayRip by Leon 345\n Encoded date : UTC 2013-09-11 17:34:58\n Writing application : mkvmerge v5.7.0 ('The Whirlwind') built on Jul 8 2012 20:08:51\n Writing library : libebml v1.2.3 + libmatroska v1.3.0\n\n Video\n ID : 1\n Format : AVC\n Format/Info : Advanced Video Codec\n Format profile : &lt;a class=&quot;__cf_email__&quot; href=&quot;/cdn-cgi/l/email-protection&quot; data-cfemail=&quot;e2aa8b858aa2aed6ccd3&quot;&gt;[email&amp;#160;protected]&lt;/a&gt;&lt;script cf-hash='f9e31' type=&quot;text/javascript&quot;&gt;\n/* &lt;![CDATA[ */!function(){try{var t=&quot;currentScript&quot;in document?document.currentScript:function(){for(var t=document.getElementsByTagName(&quot;script&quot;),e=t.length;e--;)if(t[e].getAttribute(&quot;cf-hash&quot;))return t[e]}();if(t&amp;&amp;t.previousSibling){var e,r,n,i,c=t.previousSibling,a=c.getAttribute(&quot;data-cfemail&quot;);if(a){for(e=&quot;&quot;,r=parseInt(a.substr(0,2),16),n=2;a.length-n;n+=2)i=parseInt(a.substr(n,2),16)^r,e+=String.fromCharCode(i);e=document.createTextNode(e),c.parentNode.replaceChild(e,c)}}}catch(u){}}();/* ]]&gt; */&lt;/script&gt;\n Format settings, CABAC : Yes\n Format settings, ReFrames : 2 frames\n Codec ID : V_MPEG4/ISO/AVC\n Duration : 2h 3mn\n Bit rate : 11.1 Mbps\n Width : 1 920 pixels\n Height : 1 080 pixels\n Display aspect ratio : 16:9 (1.64:1)\n Frame rate mode : Constant\n Frame rate : 23.976 fps\n Color space : YUV\n Chroma subsampling : 4:2:0\n Bit depth : 8 bits\n Scan type : Progressive\n Title : Rip by Leon 345\n Writing library : x264 core\n Default : Yes\n Forced : No\n Color primaries : BT.709\n Transfer characteristics : BT.709\n Matrix coefficients : BT.709\n\n Audio #1\n ID : 2\n Format : AC-3\n Format/Info : Audio Coding 3\n Mode extension : CM (complete main)\n Format settings, Endianness : Big\n Codec ID : A_AC3\n Duration : 2h 3mn\n Bit rate mode : Constant\n Bit rate : 384 Kbps\n Channel(s) : 2 channels\n Channel positions : Front: L R\n Sampling rate : 48.0 KHz\n Bit depth : 16 bits\n Compression mode : Lossy\n Stream size : 340 MiB (3%)\n Title : AC3 2.0 Lektor PL dopasowanie i synchro Leon 345\n Language : Polish\n Default : Yes\n Forced : Yes\n\n Audio #2\n ID : 3\n Format : AC-3\n Format/Info : Audio Coding 3\n Mode extension : CM (complete main)\n Format settings, Endianness : Big\n Codec ID : A_AC3\n Duration : 2h 3mn\n Bit rate mode : Constant\n Bit rate : 640 Kbps\n Channel(s) : 2 channels\n Channel positions : Front: L R\n Sampling rate : 48.0 KHz\n Bit depth : 16 bits\n Compression mode : Lossy\n Stream size : 567 MiB (5%)\n Title : AC3 2.0\n Language : Italian\n Default : No\n Forced : No\n\n Audio #3\n ID : 4\n Format : PCM\n Codec ID : A_PCM/INT/LIT\n Duration : 2h 3mn\n Bit rate : 1536.00 kbps\n Bit rate mode : Constant\n Channel(s) : 2 channels\n Sampling rate : 48.0 KHz\n Bit depth : 16 bits\n Title : LPCM 2.0 Orginal\n Language : Italian\n Default : No\n Forced : No\n\n Text #1\n ID : 5\n Format : UTF-8\n Codec ID : S_TEXT/UTF8\n Codec ID/Info : UTF-8 Plain Text\n Language : Polish\n Default : No\n Forced : No\n\n Text #2\n ID : 6\n Format : PGS\n Muxing mode : zlib\n Codec ID : S_HDMV/PGS\n Codec ID/Info : The same subtitle format used on BDs/HD-DVDs\n Language : English\n Default : No\n Forced : No\n\n Source [thx]:\n A/V-Nuovo Cinema Paradiso (1988) 1080p BD-Remux-HDCLUB\n Lektor PL dopasowanie i synchro Leon 345\n\n\n Wstawka na proÅ›be elviselvis123","torrent":{"xt":"urn:btih:c6aa49f689afa43eb9378b22ea9f2f61b157ff99","amp;dn":"Cinema+Paradiso%2A1988%2A%5B1080p.LPCM.AC3.2.0.BluRay.x264-LEON+345%5D","amp;tr":["udp%3A%2F%2Ftracker.openbittorrent.com%3A80","udp%3A%2F%2Fopen.demonii.com%3A1337","udp%3A%2F%2Ftracker.coppersurfer.tk%3A6969","udp%3A%2F%2Fexodus.desync.com%3A6969"],"infoHash":"c6aa49f689afa43eb9378b22ea9f2f61b157ff99","infoHashBuffer":{"type":"Buffer","data":[198,170,73,246,137,175,164,62,185,55,139,34,234,159,47,97,177,87,255,153]},"announce":[],"urlList":[]}}